# xmcd
#
# Track frame offsets:
#	150
#	20655
#	38715
#	58997
#	79240
#	97725
#	115950
#	136557
#	156122
#
# Disc length: 2371 seconds
#
# Revision: 3
# Processed by: cddbd v1.5.2PL0 Copyright (c) Steve Scherf et al.
# Submitted via: EasyCDDAExtractor 15.3.0.1
#
DISCID=6a094109
DTITLE=Jailene - Aqui Estoy
DYEAR=1997
DGENRE=Latin
TTITLE0=Regresa A Mi (Un-Break My Heart)
TTITLE1=Un Hombre Como Tu
TTITLE2=Aqui Estoy
TTITLE3=Ni Loca
TTITLE4=Sobre Llovido Mojado
TTITLE5=Que No Muera El Amor
TTITLE6=Soy Solo Una Mujer
TTITLE7=Amame Menos... Comprendeme Mas
TTITLE8=Compartir
EXTD=
EXTT0=
EXTT1=
EXTT2=
EXTT3=
EXTT4=
EXTT5=
EXTT6=
EXTT7=
EXTT8=
PLAYORDER=
